HIERARCHY
ROOT Hips
{
    OFFSET 0.000000 0.000000 0.000000
    CHANNELS 6 Xposition Yposition Zposition Zrotation Xrotation Yrotation
    JOINT Spine
    {
        OFFSET -0.000000 7.246840 0.000000
        CHANNELS 3 Zrotation Xrotation Yrotation
        JOINT Spine1
        {
            OFFSET -0.000000 20.289354 0.000000
            CHANNELS 3 Zrotation Xrotation Yrotation
            JOINT Neck
            {
                OFFSET -0.000000 20.206032 1.836912
                CHANNELS 3 Zrotation Xrotation Yrotation
                JOINT Head
                {
                    OFFSET -0.000000 12.372654 -1.767522
                    CHANNELS 3 Zrotation Xrotation Yrotation
                    End Site
                    {
                        OFFSET -0.000000 22.094025 0.000000
                    }
                }
            }
            JOINT LeftShoulder
            {
                OFFSET 3.465871 17.201674 -0.568930
                CHANNELS 3 Zrotation Xrotation Yrotation
                JOINT LeftArm
                {
                    OFFSET 14.070313 0.000000 0.000000
                    CHANNELS 3 Zrotation Xrotation Yrotation
                    JOINT LeftForeArm
                    {
                        OFFSET 26.549477 0.000000 0.000000
                        CHANNELS 3 Zrotation Xrotation Yrotation
                        JOINT LeftHand
                        {
                            OFFSET 18.880413 0.000000 0.000000
                            CHANNELS 3 Zrotation Xrotation Yrotation
                            End Site
                            {
                                OFFSET 13.256415 0.000000 0.000000
                            }
                        }
                    }
                }
            }
            JOINT RightShoulder
            {
                OFFSET -3.526370 17.201674 -0.568930
                CHANNELS 3 Zrotation Xrotation Yrotation
                JOINT RightArm
                {
                    OFFSET -14.070313 0.000000 0.000000
                    CHANNELS 3 Zrotation Xrotation Yrotation
                    JOINT RightForeArm
                    {
                        OFFSET -26.549477 0.000000 0.000000
                        CHANNELS 3 Zrotation Xrotation Yrotation
                        JOINT RightHand
                        {
                            OFFSET -18.880413 0.000000 0.000000
                            CHANNELS 3 Zrotation Xrotation Yrotation
                            End Site
                            {
                                OFFSET -13.256415 0.000000 0.000000
                            }
                        }
                    }
                }
            }
        }
    }
    JOINT LeftUpLeg
    {
        OFFSET 8.837609 0.000000 0.000000
        CHANNELS 3 Zrotation Xrotation Yrotation
        JOINT LeftLeg
        {
            OFFSET -0.000000 -41.345005 0.000000
            CHANNELS 3 Zrotation Xrotation Yrotation
            JOINT LeftFoot
            {
                OFFSET -0.000000 -35.500874 0.000000
                CHANNELS 3 Zrotation Xrotation Yrotation
                JOINT LeftToeBase
                {
                    OFFSET -0.000000 -5.744446 13.256415
                    CHANNELS 3 Zrotation Xrotation Yrotation
                    End Site
                    {
                        OFFSET -0.000000 0.000000 3.535044
                    }
                }
            }
        }
    }
    JOINT RightUpLeg
    {
        OFFSET -8.837609 0.000000 0.000000
        CHANNELS 3 Zrotation Xrotation Yrotation
        JOINT RightLeg
        {
            OFFSET -0.000000 -41.345005 0.000000
            CHANNELS 3 Zrotation Xrotation Yrotation
            JOINT RightFoot
            {
                OFFSET -0.000000 -35.500874 0.000000
                CHANNELS 3 Zrotation Xrotation Yrotation
                JOINT RightToeBase
                {
                    OFFSET -0.000000 -5.744446 13.256415
                    CHANNELS 3 Zrotation Xrotation Yrotation
                    End Site
                    {
                        OFFSET -0.000000 0.000000 3.535044
                    }
                }
            }
        }
    }
}
MOTION
Frames:    7
Frame Time:    0.010000
-9.107060    82.382835    114.846016    2.971271    2.567460    -16.661829    -1.340420    -11.918601    -3.742960    -5.935349    6.798855    -3.250158    7.527517    25.796335    -16.364941    9.173323    -12.104751    -14.112470    11.255506    -8.555150    -0.096077    6.776130    60.919876    -95.155945    18.830868    -7.392775    -87.018494    13.245649    3.001054    -60.515656    -0.855051    -10.218327    26.131973    16.366629    54.933529    71.587532    7.796353    -13.188146    106.061508    71.691147    -2.721326    28.148491    -3.847641    8.644915    4.080606    -1.148488    -10.265614    2.288874    3.707951    -0.378877    -3.409894    -0.798209    0.317115    1.115309    -11.503901    0.169335    3.344057    8.159999    -10.920079    2.059838    3.353384    5.723770    -2.853069    -0.202225    0.960453    0.358952    
-9.118228    82.378349    114.834641    2.967992    2.573897    -16.794598    -1.222584    -11.918829    -3.665108    -6.020590    6.724577    -3.183449    7.462864    25.751762    -16.125793    9.008575    -12.653992    -13.869615    11.282121    -8.436553    -0.029322    6.986971    60.689945    -95.362762    18.830868    -7.392775    -87.018494    13.245649    3.001054    -60.515656    -0.850281    -10.220211    26.148737    16.204578    54.903961    71.719269    6.944765    -13.267362    105.784767    71.763771    -1.291783    28.515511    -3.804274    8.654084    4.039144    -1.188346    -10.276608    2.320954    3.634307    -0.403127    -3.341088    -0.793346    0.334311    1.108401    -11.485011    0.154118    3.397098    8.163239    -10.991079    2.066189    3.354730    5.785376    -2.804639    -0.235036    0.942419    0.417272    
-9.130024    82.375046    114.821838    2.972025    2.581098    -16.917273    -1.087846    -11.912739    -3.565017    -6.130879    6.629038    -3.096120    7.315001    25.617306    -15.818082    8.843515    -13.021040    -13.584831    11.257729    -8.612547    -0.169505    6.900708    60.853512    -95.197914    18.830868    -7.392775    -87.018494    13.245649    3.001054    -60.515656    -0.819929    -10.238264    26.172987    15.976631    54.902607    71.884201    7.363307    -13.370573    105.920540    71.609871    -2.288760    28.205151    -3.757252    8.648782    3.991647    -1.246889    -10.264975    2.388781    3.612471    -0.421942    -3.290535    -0.758970    0.353748    1.060253    -11.473421    0.134617    3.395115    8.171067    -11.044486    2.095315    3.388704    5.826685    -2.721404    -0.210806    0.920792    0.374340    
-9.141496    82.373672    114.810493    2.988777    2.590827    -17.029591    -0.921593    -11.915058    -3.447354    -6.299835    6.534160    -2.991214    7.173733    25.389992    -15.430333    8.615248    -13.299521    -13.245659    11.271071    -8.642092    -0.166061    7.000534    60.831341    -95.260796    18.830868    -7.392775    -87.018494    13.245649    3.001054    -60.515656    -0.776300    -10.225754    26.214027    15.754952    54.853653    72.044914    7.297849    -13.432076    105.888153    71.459160    -2.342051    28.174414    -3.723686    8.637451    3.915384    -1.288040    -10.257679    2.408567    3.628939    -0.396706    -3.175348    -0.757831    0.406634    1.058329    -11.498682    0.231826    4.333648    8.029778    -11.487149    1.183620    3.393089    6.002348    -2.670630    -0.263775    0.922510    0.468391    
-9.148855    82.374550    114.804169    3.018551    2.591971    -17.119972    -0.731828    -11.925351    -3.302947    -6.510808    6.463670    -2.858520    6.838977    25.093689    -14.890939    8.562067    -13.458059    -12.734377    11.289375    -8.687466    -0.157931    7.073910    60.822891    -95.297974    18.830868    -7.392775    -87.018494    13.245649    3.001054    -60.515656    -0.737086    -10.226788    26.233448    15.525798    54.793175    72.202721    6.453238    -13.049906    105.556061    66.947525    -2.430148    28.259142    -3.710012    8.625807    3.839067    -1.323762    -10.234910    2.426230    3.555901    -0.586494    -3.258360    -0.875407    0.453924    1.222178    -11.533597    0.228936    4.339870    8.069804    -11.555392    1.180202    3.385106    6.047941    -2.596084    -0.262255    0.939790    0.465608    
-9.157592    82.375191    114.799515    3.054042    2.596685    -17.182678    -0.573761    -11.931366    -3.148508    -6.641595    6.411718    -2.716155    6.564400    24.812132    -14.417038    8.379935    -13.739942    -12.307834    11.243912    -8.724601    -0.108778    7.179908    60.777138    -95.374763    18.830868    -7.392775    -87.018494    13.245649    3.001054    -60.515656    -0.789257    -10.320265    26.186665    15.289073    54.774376    72.462280    6.452416    -13.081484    105.510948    66.920929    -2.450187    28.278563    -3.702864    8.611432    3.763389    -1.361600    -10.218461    2.439074    3.536770    -0.598063    -3.223498    -0.887843    0.439162    1.239647    -11.567487    0.226182    4.323956    8.093345    -11.608125    1.246519    3.403598    6.072120    -2.603513    -0.270082    0.941215    0.479497    
-9.169015    82.375824    114.798042    3.088191    2.594875    -17.223078    -0.450730    -11.936910    -2.990415    -6.740348    6.328706    -2.570238    6.378559    24.578310    -13.932750    8.066836    -13.992832    -11.895533    11.198831    -8.746281    -0.103093    7.235985    60.786156    -95.431602    18.830868    -7.392775    -87.018494    13.245649    3.001054    -60.515656    -0.789361    -10.385126    26.236765    14.988273    54.776302    72.654785    6.397045    -13.173964    105.506958    66.907707    -2.436298    28.333384    -3.693849    8.612537    3.680367    -1.412471    -10.227365    2.466263    3.557967    -0.597381    -3.196151    -0.891515    0.488807    1.244408    -11.600368    0.239271    4.311226    8.105245    -11.667236    1.285780    3.436793    6.086551    -2.610030    -0.282563    0.962851    0.501539    
